<svg width="472" height="472" viewBox="0 0 472 472" fill="none" xmlns="http://www.w3.org/2000/svg">
<path d="M306.602 1.61792e-06H165.362C143.649 -0.00303575 122.149 4.27055 102.088 12.5768C82.0268 20.883 63.7983 33.0593 48.443 48.4102C33.0878 63.7612 20.9064 81.9863 12.5946 102.045C4.28271 122.104 0.00309374 143.603 5.67976e-05 165.316V306.579C-0.0230405 334.422 6.99879 361.819 20.4119 386.219C33.825 410.619 53.1934 431.229 76.7141 446.13V110.295L134.995 76.6215V112.816C162.443 90.2557 196.658 77.5415 232.177 76.703C267.697 75.8646 302.474 86.9504 330.955 108.191L289.071 150.075C273.775 140.622 256.232 135.425 238.256 135.021C220.279 134.617 202.521 139.021 186.815 147.777C171.11 156.534 158.028 169.325 148.921 184.829C139.814 200.334 135.013 217.989 135.013 235.97C135.013 253.951 139.814 271.606 148.921 287.111C158.028 302.615 171.11 315.407 186.815 324.163C202.521 332.92 220.279 337.323 238.256 336.92C256.232 336.516 273.775 331.319 289.071 321.866L330.955 363.796C302.467 385.021 267.693 396.097 232.178 395.259C196.663 394.42 162.45 381.716 134.995 359.171V469.188C145.015 470.998 155.181 471.872 165.362 471.802H306.602C350.448 471.802 392.499 454.385 423.506 423.383C454.512 392.381 471.934 350.333 471.941 306.486V165.269C471.922 121.431 454.494 79.3941 423.489 48.4021C392.484 17.41 350.44 -2.242e-06 306.602 1.61792e-06ZM363.796 330.978L321.843 289.094C331.731 273.147 336.969 254.757 336.969 235.993C336.969 217.23 331.731 198.839 321.843 182.892L363.796 141.032C384.247 168.481 395.294 201.798 395.294 236.028C395.294 270.258 384.247 303.575 363.796 331.024V330.978Z" fill="white"/>
</svg>
