<svg width="79" height="68" viewBox="0 0 79 68" fill="none" xmlns="http://www.w3.org/2000/svg">
<path d="M0.912598 9.88885C0.912598 7.33247 1.92812 4.88079 3.73575 3.07315C5.54339 1.26552 7.99506 0.25 10.5514 0.25H68.3845C70.9409 0.25 73.3926 1.26552 75.2002 3.07315C77.0079 4.88079 78.0234 7.33247 78.0234 9.88885V58.0831C78.0234 60.6395 77.0079 63.0911 75.2002 64.8988C73.3926 66.7064 70.9409 67.7219 68.3845 67.7219H10.5514C7.99506 67.7219 5.54339 66.7064 3.73575 64.8988C1.92812 63.0911 0.912598 60.6395 0.912598 58.0831V9.88885ZM5.73202 53.2637V58.0831C5.73202 59.3613 6.23978 60.5871 7.1436 61.4909C8.04742 62.3948 9.27326 62.9025 10.5514 62.9025H68.3845C69.6627 62.9025 70.8886 62.3948 71.7924 61.4909C72.6962 60.5871 73.204 59.3613 73.204 58.0831V41.2151L55.001 31.8317C54.549 31.6053 54.0373 31.5267 53.5383 31.6072C53.0392 31.6876 52.5781 31.923 52.2202 32.2799L34.3401 50.16L21.5205 41.6199C21.0576 41.3118 20.5024 41.1732 19.949 41.2276C19.3956 41.2821 18.8781 41.5263 18.4842 41.9187L5.73202 53.2637ZM29.8291 21.9374C29.8291 20.0201 29.0675 18.1814 27.7118 16.8256C26.3561 15.4699 24.5173 14.7083 22.6 14.7083C20.6827 14.7083 18.844 15.4699 17.4882 16.8256C16.1325 18.1814 15.3709 20.0201 15.3709 21.9374C15.3709 23.8547 16.1325 25.6935 17.4882 27.0492C18.844 28.4049 20.6827 29.1665 22.6 29.1665C24.5173 29.1665 26.3561 28.4049 27.7118 27.0492C29.0675 25.6935 29.8291 23.8547 29.8291 21.9374Z" fill="#9D9D9D"/>
</svg>
