<svg width="188" height="188" viewBox="0 0 188 188" fill="none" xmlns="http://www.w3.org/2000/svg">
<mask id="mask0_1301_4586" style="mask-type:alpha" maskUnits="userSpaceOnUse" x="0" y="0" width="188" height="188">
<circle cx="94" cy="94" r="94" fill="white"/>
</mask>
<g mask="url(#mask0_1301_4586)">
<path d="M18.0182 184.924C18.024 185.333 18.1104 185.738 18.2725 186.114C18.4346 186.491 18.6693 186.831 18.9631 187.117C19.2569 187.403 19.6041 187.628 19.9848 187.779C20.3656 187.93 20.7724 188.005 21.1822 188H166.807C167.218 188.006 167.625 187.931 168.006 187.78C168.387 187.629 168.735 187.404 169.029 187.118C169.323 186.833 169.558 186.492 169.721 186.115C169.883 185.739 169.97 185.334 169.975 184.924V181.252C170.047 180.144 170.195 174.624 166.555 168.516C164.26 164.664 160.928 161.34 156.652 158.628C151.48 155.348 144.9 152.976 136.94 151.548C132.899 150.979 128.891 150.199 124.932 149.212C114.404 146.524 113.484 144.144 113.476 144.12C113.416 143.885 113.327 143.658 113.212 143.444C113.124 143.004 112.912 141.332 113.32 136.856C114.352 125.484 120.452 118.764 125.352 113.364C126.896 111.664 128.356 110.052 129.48 108.476C134.332 101.676 134.78 93.9356 134.8 93.4556C134.818 92.6051 134.701 91.7571 134.452 90.9436C133.972 89.4636 133.08 88.5436 132.424 87.8636C132.269 87.7079 132.118 87.5479 131.972 87.3836C131.924 87.3276 131.796 87.1756 131.912 86.4116C132.304 83.9504 132.575 81.4714 132.724 78.9836C132.948 74.9756 133.12 68.9836 132.084 63.1476C131.932 62.0329 131.702 60.9302 131.396 59.8476C130.304 55.8316 128.552 52.3996 126.116 49.5676C125.696 49.1076 115.504 38.3676 85.917 36.1676C81.8251 35.8636 77.7811 36.0276 73.7972 36.2316C72.619 36.2578 71.4465 36.4025 70.2973 36.6636C67.2413 37.4516 66.4253 39.3876 66.2133 40.4716C65.8573 42.2716 66.4813 43.6636 66.8933 44.5916C66.9533 44.7236 67.0293 44.8876 66.8973 45.3196C66.2133 46.3836 65.1294 47.3436 64.0294 48.2516C63.7094 48.5196 56.2935 54.9196 55.8855 63.2756C54.7856 69.6316 54.8656 79.5316 56.1655 86.3756C56.2455 86.7556 56.3535 87.3156 56.1735 87.6956C54.7736 88.9476 53.1896 90.3676 53.1936 93.6076C53.2096 93.9356 53.6616 101.672 58.5135 108.476C59.6335 110.052 61.0934 111.66 62.6334 113.36L62.6414 113.364C67.5413 118.764 73.6412 125.484 74.6732 136.852C75.0772 141.332 74.8652 143 74.7812 143.444C74.6651 143.657 74.5751 143.884 74.5132 144.12C74.5092 144.144 73.5932 146.516 63.1134 149.2C57.0655 150.748 51.1136 151.54 50.9336 151.56C43.1978 152.868 36.6579 155.184 31.494 158.444C27.2341 161.136 23.8941 164.472 21.5742 168.352C17.8622 174.552 17.9622 180.2 18.0142 181.232V184.924H18.0182Z" fill="white"/>
</g>
</svg>
