<svg width="152" height="152" viewBox="0 0 152 152" fill="none" xmlns="http://www.w3.org/2000/svg">
<path d="M0.0182353 148.924C0.0239728 149.333 0.110366 149.738 0.272482 150.114C0.434598 150.491 0.66926 150.831 0.963067 151.117C1.25687 151.403 1.60407 151.628 1.98483 151.779C2.36559 151.93 2.77245 152.005 3.18218 152H148.807C149.218 152.006 149.625 151.931 150.006 151.78C150.387 151.629 150.735 151.404 151.029 151.118C151.323 150.833 151.558 150.492 151.721 150.115C151.883 149.739 151.97 149.334 151.975 148.924V145.252C152.047 144.144 152.195 138.624 148.555 132.516C146.26 128.664 142.928 125.34 138.652 122.628C133.48 119.348 126.9 116.976 118.94 115.548C114.899 114.979 110.891 114.199 106.932 113.212C96.4045 110.524 95.4845 108.144 95.4765 108.12C95.4157 107.885 95.327 107.658 95.2125 107.444C95.1245 107.004 94.9125 105.332 95.3205 100.856C96.3525 89.4836 102.452 82.7636 107.352 77.3636C108.896 75.6636 110.356 74.0516 111.48 72.4756C116.332 65.6756 116.78 57.9356 116.8 57.4556C116.818 56.6051 116.701 55.7571 116.452 54.9436C115.972 53.4636 115.08 52.5436 114.424 51.8636C114.269 51.7079 114.118 51.5479 113.972 51.3836C113.924 51.3276 113.796 51.1756 113.912 50.4116C114.304 47.9504 114.575 45.4714 114.724 42.9836C114.948 38.9756 115.12 32.9836 114.084 27.1476C113.932 26.0329 113.702 24.9302 113.396 23.8476C112.304 19.8316 110.552 16.3996 108.116 13.5676C107.696 13.1076 97.5044 2.36756 67.917 0.167561C63.8251 -0.136439 59.7811 0.027562 55.7972 0.231562C54.619 0.25775 53.4465 0.402479 52.2973 0.663561C49.2413 1.45156 48.4253 3.38756 48.2133 4.47156C47.8573 6.27156 48.4813 7.66356 48.8933 8.59156C48.9533 8.72356 49.0293 8.88756 48.8973 9.31956C48.2133 10.3836 47.1294 11.3436 46.0294 12.2516C45.7094 12.5196 38.2935 18.9196 37.8855 27.2756C36.7856 33.6316 36.8656 43.5316 38.1655 50.3756C38.2455 50.7556 38.3535 51.3156 38.1735 51.6956C36.7736 52.9476 35.1896 54.3676 35.1936 57.6076C35.2096 57.9356 35.6616 65.6716 40.5135 72.4756C41.6335 74.0516 43.0934 75.6596 44.6334 77.3596L44.6414 77.3636C49.5413 82.7636 55.6412 89.4836 56.6732 100.852C57.0772 105.332 56.8652 107 56.7812 107.444C56.6651 107.657 56.5751 107.884 56.5132 108.12C56.5092 108.144 55.5932 110.516 45.1134 113.2C39.0655 114.748 33.1136 115.54 32.9336 115.56C25.1978 116.868 18.6579 119.184 13.494 122.444C9.23406 125.136 5.89413 128.472 3.57417 132.352C-0.137762 138.552 -0.0377652 144.2 0.0142338 145.232V148.924H0.0182353Z" fill="white"/>
</svg>
