<svg width="241" height="90" viewBox="0 0 241 90" fill="none" xmlns="http://www.w3.org/2000/svg">
<path d="M122.531 18.1321C124.409 18.9336 126.011 20.2693 127.136 21.9733C128.262 23.6773 128.862 25.6744 128.862 27.7166C128.862 29.7588 128.262 31.7559 127.136 33.4599C126.011 35.1639 124.409 36.4996 122.531 37.3011C120.329 38.231 117.954 38.6822 115.565 38.6246H110.412V46.3495H102.052V16.791H115.565C117.956 16.739 120.33 17.1962 122.531 18.1321ZM118.944 30.9262C119.391 30.5285 119.742 30.035 119.971 29.4827C120.2 28.9304 120.302 28.3335 120.268 27.7365C120.299 27.1371 120.197 26.5382 119.968 25.9834C119.739 25.4285 119.389 24.9317 118.944 24.5291C118.062 23.7703 116.766 23.3909 115.058 23.3909H110.412V32.0467H115.058C116.772 32.0467 118.071 31.6732 118.953 30.9262H118.944Z" fill="#1A1A1A"/>
<path d="M139.652 44.9687C137.211 43.6874 135.166 41.7628 133.74 39.4031C132.313 37.0435 131.559 34.3386 131.559 31.5813C131.559 28.824 132.313 26.1192 133.74 23.7595C135.166 21.3999 137.211 19.4753 139.652 18.1939C142.269 16.8882 145.152 16.2085 148.076 16.2085C151 16.2085 153.884 16.8882 156.501 18.1939C158.943 19.4742 160.989 21.3984 162.417 23.7582C163.844 26.118 164.599 28.8234 164.599 31.5813C164.599 34.3393 163.844 37.0447 162.417 39.4044C160.989 41.7642 158.943 43.6885 156.501 44.9687C153.884 46.2745 151 46.9542 148.076 46.9542C145.152 46.9542 142.269 46.2745 139.652 44.9687ZM152.133 38.9688C153.347 38.2618 154.341 37.2326 155.005 35.9953C155.697 34.6277 156.058 33.1164 156.058 31.5835C156.058 30.0507 155.697 28.5394 155.005 27.1718C154.34 25.9341 153.346 24.9037 152.133 24.1939C150.894 23.5023 149.498 23.1393 148.079 23.1393C146.659 23.1393 145.264 23.5023 144.024 24.1939C142.811 24.9037 141.818 25.9341 141.152 27.1718C140.46 28.5394 140.099 30.0507 140.099 31.5835C140.099 33.1164 140.46 34.6277 141.152 35.9953C141.817 37.2326 142.811 38.2618 144.024 38.9688C145.263 39.6628 146.659 40.0273 148.079 40.0273C149.498 40.0273 150.894 39.6628 152.133 38.9688Z" fill="#1A1A1A"/>
<path d="M175.295 44.9996C172.891 43.7507 170.881 41.8583 169.489 39.5335C168.104 37.1162 167.375 34.3785 167.375 31.5924C167.375 28.8062 168.104 26.0686 169.489 23.6513C170.882 21.3263 172.892 19.4327 175.295 18.1807C177.869 16.8464 180.734 16.1718 183.633 16.2175C186.142 16.1764 188.631 16.6634 190.939 17.6469C193.052 18.5631 194.908 19.9841 196.343 21.7851L191.023 26.5983C189.108 24.2924 186.786 23.138 184.057 23.1351C182.56 23.1087 181.082 23.472 179.769 24.1895C178.531 24.88 177.519 25.9143 176.857 27.1674C176.176 28.5383 175.821 30.0483 175.821 31.5791C175.821 33.1099 176.176 34.62 176.857 35.9908C177.518 37.2436 178.53 38.2769 179.769 38.9644C181.081 39.6853 182.56 40.0503 184.057 40.0232C186.786 40.0232 189.108 38.8688 191.023 36.56L196.343 41.3732C194.908 43.1741 193.052 44.5951 190.939 45.5114C188.632 46.4979 186.142 46.9879 183.633 46.9496C180.735 47.0014 177.87 46.3312 175.295 44.9996Z" fill="#1A1A1A"/>
<path d="M116.58 68.9728H106.79L104.761 73.5787H102.052L110.394 55.1465H112.997L121.38 73.5699H118.618L116.58 68.9728ZM115.658 66.8684L111.687 57.842L107.716 66.8684H115.658Z" fill="#1A1A1A"/>
<path d="M127.093 72.5641C125.644 71.7817 124.437 70.6176 123.603 69.198C122.776 67.7231 122.341 66.0604 122.341 64.3693C122.341 62.6782 122.776 61.0155 123.603 59.5407C124.439 58.1163 125.651 56.95 127.106 56.1701C128.641 55.3434 130.362 54.9227 132.105 54.9481C133.463 54.9276 134.812 55.1734 136.075 55.6716C137.246 56.1379 138.292 56.8722 139.128 57.8157L137.416 59.4745C136.756 58.7651 135.952 58.2037 135.058 57.8273C134.165 57.4509 133.202 57.268 132.233 57.2907C130.937 57.271 129.659 57.5872 128.522 58.2084C127.44 58.7996 126.542 59.6791 125.928 60.7495C125.315 61.8566 124.993 63.1015 124.993 64.3671C124.993 65.6328 125.315 66.8777 125.928 67.9847C126.541 69.056 127.439 69.9358 128.522 70.5259C129.659 71.1486 130.937 71.4663 132.233 71.448C133.203 71.467 134.167 71.2803 135.061 70.9001C135.954 70.5199 136.757 69.9548 137.416 69.2421L139.128 70.8965C138.286 71.8433 137.237 72.5831 136.062 73.0582C134.799 73.5605 133.45 73.8108 132.091 73.795C130.347 73.8212 128.626 73.3973 127.093 72.5641Z" fill="#1A1A1A"/>
<path d="M154.159 68.9728H144.37L142.336 73.5787H139.627L147.974 55.1465H150.577L158.959 73.5699H156.197L154.159 68.9728ZM153.237 66.8684L149.267 57.842L145.296 66.8684H153.237Z" fill="#1A1A1A"/>
<path d="M161.686 55.1465H169.446C171.244 55.113 173.023 55.5109 174.634 56.3068C176.098 57.0282 177.323 58.1553 178.164 59.5538C178.983 61.0227 179.412 62.6765 179.412 64.3582C179.412 66.0398 178.983 67.6936 178.164 69.1625C177.325 70.5621 176.099 71.6896 174.634 72.4096C173.023 73.2054 171.244 73.6033 169.446 73.5699H161.686V55.1465ZM169.292 71.2802C170.654 71.3047 172.002 71.0021 173.223 70.3978C174.32 69.8681 175.238 69.0293 175.865 67.9846C176.47 66.8748 176.787 65.631 176.787 64.367C176.787 63.103 176.47 61.8592 175.865 60.7494C175.248 59.6997 174.337 58.8532 173.245 58.3141C172.024 57.7098 170.676 57.4072 169.314 57.4318H164.315V71.2758L169.292 71.2802Z" fill="#1A1A1A"/>
<path d="M196.79 71.289V73.5787H183.422V55.1465H196.424V57.4362H186.052V63.0876H195.277V65.3243H186.052V71.2713L196.79 71.289Z" fill="#1A1A1A"/>
<path d="M218.133 73.5787L218.107 60.1582L211.449 71.3419H210.236L203.579 60.2376V73.5787H201.051V55.1465H203.217L210.898 68.0949L218.473 55.1465H220.63L220.656 73.5699L218.133 73.5787Z" fill="#1A1A1A"/>
<path d="M233.239 67.2081V73.5787H230.632V67.1552L223.317 55.1465H226.132L232.026 64.8523L237.947 55.1465H240.554L233.239 67.2081Z" fill="#1A1A1A"/>
<path d="M58.4863 3.08628e-07H31.5439C27.402 -0.000579088 23.3007 0.814636 19.4739 2.39911C15.6471 3.98358 12.1699 6.30627 9.24082 9.23457C6.3117 12.1629 3.98804 15.6394 2.4025 19.4657C0.816955 23.2921 0.00059015 27.3932 1.08345e-05 31.535V58.4819C-0.00439513 63.7932 1.33506 69.0194 3.8937 73.6738C6.45234 78.3283 10.147 82.2597 14.6337 85.1022V21.0395L25.7513 14.6161V21.5204C30.9871 17.2169 37.5138 14.7915 44.2894 14.6316C51.065 14.4717 57.6988 16.5864 63.1318 20.6381L55.1422 28.6277C52.2244 26.8245 48.878 25.8332 45.4488 25.7561C42.0196 25.6791 38.6321 26.5191 35.6363 28.1895C32.6404 29.8598 30.1449 32.2999 28.4077 35.2574C26.6705 38.215 25.7546 41.5828 25.7546 45.0129C25.7546 48.4429 26.6705 51.8107 28.4077 54.7683C30.1449 57.7259 32.6404 60.1659 35.6363 61.8362C38.6321 63.5066 42.0196 64.3466 45.4488 64.2696C48.878 64.1926 52.2244 63.2012 55.1422 61.398L63.1318 69.3965C57.6976 73.4452 51.0643 75.5581 44.2895 75.3982C37.5147 75.2383 30.9884 72.8148 25.7513 68.5141V89.5007C27.6625 89.8459 29.6017 90.0128 31.5439 89.9992H58.4863C66.8503 89.9992 74.8718 86.677 80.7865 80.7631C86.7011 74.8493 90.0246 66.8282 90.0257 58.4642V31.5262C90.0222 23.1637 86.6978 15.1449 80.7834 9.23301C74.8689 3.32108 66.8488 -4.27676e-07 58.4863 3.08628e-07ZM69.3965 63.1362L61.3936 55.1466C63.2798 52.1047 64.2791 48.5965 64.2791 45.0173C64.2791 41.438 63.2798 37.9299 61.3936 34.8879L69.3965 26.9027C73.2977 32.1389 75.4049 38.4942 75.4049 45.0239C75.4049 51.5536 73.2977 57.9089 69.3965 63.1451V63.1362Z" fill="url(#paint0_linear_1633_170)"/>
<path d="M75.4047 44.9996C75.4098 51.5322 73.302 57.8912 69.3959 63.1274L61.3931 55.1466C63.2792 52.1047 64.2786 48.5965 64.2786 45.0173C64.2786 41.438 63.2792 37.9299 61.3931 34.8879L69.3959 26.9027C73.2994 32.1285 75.4073 38.4769 75.4047 44.9996Z" fill="white"/>
<path d="M55.1418 61.3846L63.1314 69.383C57.6972 73.4318 51.0639 75.5446 44.2891 75.3847C37.5143 75.2248 30.988 72.8013 25.7508 68.5007V89.4873C21.7982 88.7539 18.0237 87.2666 14.6333 85.1064V21.0393L25.7508 14.6158V21.5202C30.9867 17.2167 37.5134 14.7913 44.2889 14.6314C51.0645 14.4715 57.6984 16.5861 63.1314 20.6379L55.1418 28.6275C52.224 26.8243 48.8776 25.8329 45.4484 25.7559C42.0192 25.6789 38.6317 26.5189 35.6358 28.1893C32.64 29.8596 30.1445 32.2996 28.4073 35.2572C26.6701 38.2148 25.7542 41.5826 25.7542 45.0126C25.7542 48.4427 26.6701 51.8105 28.4073 54.7681C30.1445 57.7256 32.64 60.1657 35.6358 61.836C38.6317 63.5064 42.0192 64.3464 45.4484 64.2694C48.8776 64.1923 52.224 63.201 55.1418 61.3978V61.3846Z" fill="white"/>
<defs>
<linearGradient id="paint0_linear_1633_170" x1="8.94258" y1="81.0699" x2="79.7905" y2="10.222" gradientUnits="userSpaceOnUse">
<stop stop-color="#146AB4"/>
<stop offset="1" stop-color="#00D4FE"/>
</linearGradient>
</defs>
</svg>
